<?xml version="1.0" encoding="UTF-8" standalone="no"?>
<!-- Created with Inkscape (http://www.inkscape.org/) -->

<svg
   xmlns:dc="http://purl.org/dc/elements/1.1/"
   xmlns:cc="http://creativecommons.org/ns#"
   xmlns:rdf="http://www.w3.org/1999/02/22-rdf-syntax-ns#"
   xmlns:svg="http://www.w3.org/2000/svg"
   xmlns="http://www.w3.org/2000/svg"
   xmlns:sodipodi="http://sodipodi.sourceforge.net/DTD/sodipodi-0.dtd"
   xmlns:inkscape="http://www.inkscape.org/namespaces/inkscape"
   id="svg2"
   sodipodi:docname="free-trial.svg"
   viewBox="0 0 600 750"
   sodipodi:version="0.32"
   version="1.0"
   inkscape:version="0.48.4 r9939"
   width="100%"
   height="100%">
  <defs
     id="defs17" />
  <sodipodi:namedview
     id="base"
     fit-margin-left="0"
     inkscape:zoom="0.72784856"
     height="750px"
     borderopacity="1.0"
     inkscape:current-layer="layer1"
     inkscape:cx="-90.215185"
     inkscape:cy="277.61688"
     fit-margin-right="0"
     inkscape:window-maximized="1"
     showgrid="false"
     width="600px"
     inkscape:document-units="px"
     bordercolor="#666666"
     inkscape:window-x="0"
     guidetolerance="10"
     objecttolerance="10"
     inkscape:window-y="0"
     fit-margin-bottom="0"
     inkscape:window-width="1920"
     inkscape:pageopacity="0.0"
     inkscape:pageshadow="2"
     pagecolor="#ffffff"
     gridtolerance="10000"
     inkscape:window-height="1138"
     fit-margin-top="0" />
  <g
     id="layer1"
     inkscape:label="Layer 1"
     inkscape:groupmode="layer">
    <path
       id="rect1890"
       style="color:#000000;fill:#ffd033"
       inkscape:connector-curvature="0"
       d="m37.5 0h525c20.78 0 37.5 16.725 37.5 37.5v675c0 20.775-16.725 37.5-37.5 37.5h-525c-20.775 0-37.5-16.72-37.5-37.5v-675c0-20.775 16.725-37.5 37.5-37.5z" />
    <path
       id="rect2778"
       style="color:#000000;fill:#000000"
       inkscape:connector-curvature="0"
       d="m37.5 9.375h525c15.581 0 28.125 12.544 28.125 28.125v675c0 15.581-12.544 28.125-28.125 28.125h-525c-15.581 0-28.125-12.54-28.125-28.12v-675c0-15.581 12.544-28.125 28.125-28.125z" />
    <path
       id="rect3665"
       style="color:#000000;fill:#ffd033"
       inkscape:connector-curvature="0"
       d="m37.5 25h525c6.925 0 12.5 5.575 12.5 12.5v200c0 6.925-5.575 12.5-12.5 12.5h-525c-6.925 0-12.5-5.58-12.5-12.5v-200c0-6.925 5.575-12.5 12.5-12.5z" />
    <path
       id="rect5522"
       style="color:#000000;fill:#ffd033"
       inkscape:connector-curvature="0"
       d="m37.5 265.62h525c6.925 0 12.5 5.575 12.5 12.5v434.38c0 6.925-5.575 12.5-12.5 12.5h-525c-6.925 0-12.5-5.58-12.5-12.5v-434.38c0-6.925 5.575-12.5 12.5-12.5z" />
    <path
       id="text1905"
       style="fill:#000000"
       inkscape:connector-curvature="0"
       d="m 257.6653,472.91 v 40.592 h -34.926 V 472.91 h -123.58 v -32.239 l 123.58,-127.17 h 34.926 v 127.17 h 29.552 v 32.239 h -29.552 z m -34.926,-112.24 -77.915,80 h 77.915 v -80 z m 278.1,51.642 c -1.9e-4,12.936 -1.5412,25.622 -4.6231,38.06 -3.0823,12.438 -7.9574,23.63 -14.625,33.578 -6.6684,9.9476 -15.275,17.956 -25.821,24.026 -10.546,6.07 -23.383,9.105 -38.511,9.105 -14.922,0 -27.705,-2.9348 -38.351,-8.8044 -10.646,-5.8696 -19.353,-13.679 -26.122,-23.43 -6.7685,-9.7502 -11.744,-20.844 -14.926,-33.282 -3.1823,-12.437 -4.7735,-25.224 -4.7734,-38.36 -3e-5,-13.136 1.6412,-25.923 4.9238,-38.36 3.2825,-12.437 8.3565,-23.431 15.222,-32.981 6.8656,-9.5496 15.573,-17.261 26.122,-23.134 10.549,-5.8724 23.184,-8.8087 37.905,-8.8089 14.928,2e-4 27.664,2.9851 38.21,8.9547 10.546,5.97 19.203,13.781 25.972,23.434 6.7683,9.6532 11.694,20.598 14.776,32.835 3.0819,12.237 4.6229,24.626 4.6231,37.167 z m -35.819,0.89273 c -1.6e-4,-21.091 -4.1784,-37.609 -12.535,-49.551 -8.3567,-11.942 -20.099,-17.914 -35.227,-17.914 -8.9518,1.7e-4 -16.513,2.0908 -22.683,6.2719 -6.1703,4.1814 -11.146,9.5059 -14.926,15.974 -3.7806,6.4679 -6.5165,13.631 -8.2078,21.489 -1.6914,7.8586 -2.5371,15.471 -2.537,22.838 -6e-5,22.288 4.2784,39.352 12.835,51.191 8.5569,11.839 20.396,17.759 35.518,17.759 7.3665,3e-5 13.985,-1.6412 19.854,-4.9237 5.8695,-3.2824 10.893,-7.9586 15.072,-14.029 4.1781,-6.0699 7.3619,-13.333 9.5514,-21.79 2.1892,-8.4566 3.2838,-17.859 3.284,-28.208 v 0.89273 z" />
    <text
       xml:space="preserve"
       style="font-size:144px;font-style:normal;font-variant:normal;font-weight:normal;font-stretch:normal;text-align:start;line-height:125%;letter-spacing:0px;word-spacing:0px;writing-mode:lr-tb;text-anchor:start;fill:#000000;fill-opacity:1;stroke:none;font-family:DejaVu Sans;-inkscape-font-specification:DejaVu Sans"
       x="95.636719"
       y="186.69601"
       id="text2994"
       sodipodi:linespacing="125%"><tspan
         sodipodi:role="line"
         id="tspan2996"
         x="95.636719"
         y="186.69601"
         style="font-weight:bold;-inkscape-font-specification:DejaVu Sans Bold">FREE</tspan></text>
    <text
       xml:space="preserve"
       style="font-size:144px;font-style:normal;font-variant:normal;font-weight:normal;font-stretch:normal;text-align:start;line-height:125%;letter-spacing:0px;word-spacing:0px;writing-mode:lr-tb;text-anchor:start;fill:#000000;fill-opacity:1;stroke:none;font-family:DejaVu Sans;-inkscape-font-specification:DejaVu Sans"
       x="86.074219"
       y="685.70575"
       id="text2994-0"
       sodipodi:linespacing="125%"><tspan
         sodipodi:role="line"
         id="tspan2996-5"
         x="86.074219"
         y="685.70575"
         style="font-weight:bold;-inkscape-font-specification:DejaVu Sans Bold">DAYS</tspan></text>
  </g>
  <metadata
     id="metadata15">
    <rdf:RDF>
      <cc:Work>
        <dc:format>image/svg+xml</dc:format>
        <dc:type
           rdf:resource="http://purl.org/dc/dcmitype/StillImage" />
        <cc:license
           rdf:resource="http://creativecommons.org/licenses/publicdomain/" />
        <dc:publisher>
          <cc:Agent
             rdf:about="http://openclipart.org/">
            <dc:title>Openclipart</dc:title>
          </cc:Agent>
        </dc:publisher>
        <dc:title>Exit Speed 40</dc:title>
        <dc:date>2013-01-13T08:54:16</dc:date>
        <dc:description>Sign advising maximum safe speed for exit is 40 mph</dc:description>
        <dc:source>https://openclipart.org/detail/174219/exit-speed-40-by-rfc1394-174219</dc:source>
        <dc:creator>
          <cc:Agent>
            <dc:title>Rfc1394</dc:title>
          </cc:Agent>
        </dc:creator>
        <dc:subject>
          <rdf:Bag>
            <rdf:li>road</rdf:li>
            <rdf:li>sign</rdf:li>
            <rdf:li>speed</rdf:li>
            <rdf:li>traffic</rdf:li>
          </rdf:Bag>
        </dc:subject>
      </cc:Work>
      <cc:License
         rdf:about="http://creativecommons.org/licenses/publicdomain/">
        <cc:permits
           rdf:resource="http://creativecommons.org/ns#Reproduction" />
        <cc:permits
           rdf:resource="http://creativecommons.org/ns#Distribution" />
        <cc:permits
           rdf:resource="http://creativecommons.org/ns#DerivativeWorks" />
      </cc:License>
    </rdf:RDF>
  </metadata>
</svg>
