<?xml version="1.0" encoding="UTF-8" standalone="no"?>
<!-- Created with Inkscape (http://www.inkscape.org/) -->

<svg
   xmlns:dc="http://purl.org/dc/elements/1.1/"
   xmlns:cc="http://creativecommons.org/ns#"
   xmlns:rdf="http://www.w3.org/1999/02/22-rdf-syntax-ns#"
   xmlns:svg="http://www.w3.org/2000/svg"
   xmlns="http://www.w3.org/2000/svg"
   xmlns:sodipodi="http://sodipodi.sourceforge.net/DTD/sodipodi-0.dtd"
   xmlns:inkscape="http://www.inkscape.org/namespaces/inkscape"
   width="32"
   height="32"
   id="svg2"
   version="1.1"
   inkscape:version="0.48.3.1 r9886"
   inkscape:export-filename="/media/windows/commercial/xindex0.2/images/xindex.png"
   inkscape:export-xdpi="720"
   inkscape:export-ydpi="720"
   sodipodi:docname="xindex.svg">
  <defs
     id="defs4">
    <inkscape:path-effect
       effect="spiro"
       id="path-effect3866"
       is_visible="true" />
    <inkscape:path-effect
       effect="spiro"
       id="path-effect3866-2"
       is_visible="true" />
  </defs>
  <sodipodi:namedview
     id="base"
     pagecolor="#ffffff"
     bordercolor="#666666"
     borderopacity="1.0"
     inkscape:pageopacity="0.0"
     inkscape:pageshadow="2"
     inkscape:zoom="23.239243"
     inkscape:cx="10.718127"
     inkscape:cy="15.657782"
     inkscape:document-units="px"
     inkscape:current-layer="layer1"
     showgrid="false"
     inkscape:window-width="1920"
     inkscape:window-height="1145"
     inkscape:window-x="0"
     inkscape:window-y="0"
     inkscape:window-maximized="1" />
  <metadata
     id="metadata7">
    <rdf:RDF>
      <cc:Work
         rdf:about="">
        <dc:format>image/svg+xml</dc:format>
        <dc:type
           rdf:resource="http://purl.org/dc/dcmitype/StillImage" />
        <dc:title></dc:title>
      </cc:Work>
    </rdf:RDF>
  </metadata>
  <g
     inkscape:label="Layer 1"
     inkscape:groupmode="layer"
     id="layer1"
     transform="translate(0,-1020.3622)"
     style="display:inline">
    <path
       sodipodi:type="arc"
       style="fill:#f6d5ff;fill-opacity:1;fill-rule:nonzero;stroke:#f6d5ff;stroke-width:2.50000000000000000;stroke-linecap:butt;stroke-linejoin:miter;stroke-miterlimit:4;stroke-opacity:1;stroke-dasharray:none"
       id="path3033"
       sodipodi:cx="15.125278"
       sodipodi:cy="15.067434"
       sodipodi:rx="15.039216"
       sodipodi:ry="15.039216"
       d="m 30.164495,15.067434 c 0,8.30593 -6.733287,15.039216 -15.039217,15.039216 -8.3059292,0 -15.03921557,-6.733286 -15.03921557,-15.039216 0,-8.3059294 6.73328637,-15.03921573 15.03921557,-15.03921573 8.30593,0 15.039217,6.73328633 15.039217,15.03921573 z"
       transform="matrix(0.97490418,0,0,0.97490418,1.2543028,1021.6729)" />
    <g
       id="g3775"
       transform="matrix(1.3300171,0,0,1.3300171,-4.8656659,-347.35941)">
      <path
         sodipodi:open="true"
         sodipodi:end="5.7595865"
         sodipodi:start="0.52359878"
         transform="matrix(0.90124215,0,0,0.79565172,54.778317,1013.3282)"
         d="m -32.715311,38.650884 c -1.948384,3.3747 -6.263595,4.530957 -9.638294,2.582573 -3.374699,-1.948383 -4.530957,-6.263594 -2.582573,-9.638293 1.948383,-3.3747 6.263595,-4.530957 9.638294,-2.582573 1.072605,0.619268 1.963304,1.509967 2.582573,2.582572"
         sodipodi:ry="7.0557208"
         sodipodi:rx="7.0557208"
         sodipodi:cy="35.123024"
         sodipodi:cx="-38.825745"
         id="path2989"
         style="fill:none;stroke:#800080;stroke-width:2.95228148;stroke-linecap:round;stroke-linejoin:miter;stroke-miterlimit:4;stroke-opacity:1;stroke-dasharray:none"
         sodipodi:type="arc" />
      <path
         sodipodi:open="true"
         sodipodi:end="5.7595865"
         sodipodi:start="0.52359878"
         d="m -32.715311,38.650884 c -1.948384,3.3747 -6.263595,4.530957 -9.638294,2.582573 -3.374699,-1.948383 -4.530957,-6.263594 -2.582573,-9.638293 1.948383,-3.3747 6.263595,-4.530957 9.638294,-2.582573 1.072605,0.619268 1.963304,1.509967 2.582573,2.582572"
         sodipodi:ry="7.0557208"
         sodipodi:rx="7.0557208"
         sodipodi:cy="35.123024"
         sodipodi:cx="-38.825745"
         id="path2989-9"
         style="fill:none;stroke:#800080;stroke-width:2.95228148;stroke-linecap:round;stroke-linejoin:miter;stroke-miterlimit:4;stroke-opacity:1;stroke-dasharray:none;display:inline"
         sodipodi:type="arc"
         transform="matrix(-0.90124215,0,0,0.79565172,-23.5959,1013.3282)" />
    </g>
  </g>
  <g
     inkscape:groupmode="layer"
     id="layer2"
     inkscape:label="Top">
    <path
       sodipodi:type="arc"
       style="fill:#800080;stroke:#800080;stroke-width:3;stroke-linecap:round;stroke-linejoin:miter;stroke-miterlimit:4;stroke-opacity:1;stroke-dasharray:none"
       id="path3799"
       sodipodi:cx="-8.6061325"
       sodipodi:cy="8.4191971"
       sodipodi:rx="0.86061323"
       sodipodi:ry="0.86061323"
       d="m -7.7455193,8.4191971 a 0.86061323,0.86061323 0 1 1 -1.7212264,0 0.86061323,0.86061323 0 1 1 1.7212264,0 z"
       transform="matrix(1.0148407,0,0,1.0148407,24.604762,-4.9093475)" />
  </g>
</svg>
