<?xml version="1.0" encoding="UTF-8" standalone="no"?>
<!-- Created with Inkscape (http://www.inkscape.org/) -->

<svg
   xmlns:dc="http://purl.org/dc/elements/1.1/"
   xmlns:cc="http://creativecommons.org/ns#"
   xmlns:rdf="http://www.w3.org/1999/02/22-rdf-syntax-ns#"
   xmlns:svg="http://www.w3.org/2000/svg"
   xmlns="http://www.w3.org/2000/svg"
   xmlns:sodipodi="http://sodipodi.sourceforge.net/DTD/sodipodi-0.dtd"
   xmlns:inkscape="http://www.inkscape.org/namespaces/inkscape"
   id="svg1"
   viewBox="0 0 120 120"
   sodipodi:version="0.32"
   inkscape:version="0.91 r13725"
   sodipodi:docname="xref-change.svg"
   version="1.1">
  <defs
     id="defs3">
    <linearGradient
       id="linearGradient2821">
      <stop
         id="stop2823"
         style="stop-color:#d3b900"
         offset="0" />
      <stop
         id="stop2825"
         style="stop-color:#fdffb8"
         offset="1" />
    </linearGradient>
  </defs>
  <sodipodi:namedview
     id="base"
     bordercolor="#666666"
     inkscape:window-x="1"
     inkscape:window-y="25"
     pagecolor="#ffffff"
     inkscape:zoom="2.8284271"
     inkscape:pageshadow="2"
     borderopacity="1.0"
     inkscape:current-layer="layer1"
     inkscape:cx="22.241415"
     inkscape:cy="57.292893"
     inkscape:window-width="1152"
     inkscape:pageopacity="0.0"
     inkscape:window-height="793"
     showgrid="false" />
  <g
     id="layer1"
     inkscape:label="Layer 1"
     inkscape:groupmode="layer">
    <g
       id="g3429"
       transform="translate(-5.2723938,0.64371402)">
      <path
         id="path3367"
         d="m 92.570505,10.907575 0,14.428711 q -8.422851,-4.02832 -15.893555,-6.005859 -7.470703,-1.977539 -14.42871,-1.977539 -12.084961,0 -18.676758,4.6875 -6.518555,4.6875 -6.518555,13.330078 0,7.250976 4.321289,10.986328 4.394531,3.662109 16.552734,5.932617 l 8.935547,1.831055 q 16.552735,3.149414 24.389649,11.132812 7.910156,7.910157 7.910156,21.240235 0,15.893547 -10.693359,24.096677 -10.620118,8.20312 -31.201172,8.20312 -7.763672,0 -16.552735,-1.75781 -8.71582,-1.75781 -18.09082,-5.20019 l 0,-15.234375 q 9.008789,5.053715 17.651367,7.617185 8.642578,2.56348 16.992188,2.56348 12.670898,0 19.555664,-4.98047 6.884765,-4.980469 6.884765,-14.208984 0,-8.056641 -4.980468,-12.597657 -4.907227,-4.541015 -16.186524,-6.811523 L 53.532419,66.425153 Q 36.979685,63.129255 29.582224,56.098005 q -7.397461,-7.03125 -7.397461,-19.555664 0,-14.501953 10.180664,-22.851563 10.253906,-8.3496091 28.198242,-8.3496091 7.69043,0 15.673828,1.3916016 7.983399,1.3916016 16.333008,4.1748045 z"
         style="font-style:normal;font-variant:normal;font-weight:normal;font-stretch:normal;font-size:medium;line-height:125%;font-family:'DejaVu Sans';-inkscape-font-specification:'DejaVu Sans';text-align:start;letter-spacing:0px;word-spacing:0px;writing-mode:lr-tb;text-anchor:start;fill:#a05a2c;fill-opacity:1;stroke:#a05a2c;stroke-width:2;stroke-linecap:butt;stroke-linejoin:miter;stroke-miterlimit:4;stroke-dasharray:none;stroke-opacity:1"
         inkscape:connector-curvature="0" />
      <ellipse
         ry="8.6620579"
         rx="9.0156116"
         cy="102.82526"
         cx="19.898466"
         id="path4460"
         style="opacity:1;fill:#a05a2c;fill-opacity:1;fill-rule:nonzero;stroke:#a05a2c;stroke-width:2;stroke-linecap:butt;stroke-linejoin:miter;stroke-miterlimit:4;stroke-dasharray:none;stroke-opacity:1" />
      <path
         transform="matrix(1.3205879,-0.38720347,0.38720347,1.3205879,-33.492624,34.702362)"
         inkscape:transform-center-y="-3.8108768"
         inkscape:transform-center-x="-1.4414273"
         d="M 106.77313,27.369012 94.04226,25.526794 81.311393,23.684575 89.272235,13.58043 97.233076,3.476285 102.0031,15.422649 Z"
         inkscape:randomized="0"
         inkscape:rounded="0"
         inkscape:flatsided="false"
         sodipodi:arg2="1.7145037"
         sodipodi:arg1="0.66730613"
         sodipodi:r2="7.4267254"
         sodipodi:r1="14.853451"
         sodipodi:cy="18.176624"
         sodipodi:cx="95.105865"
         sodipodi:sides="3"
         id="path4462"
         style="opacity:1;fill:#a05a2c;fill-opacity:1;fill-rule:nonzero;stroke:#a05a2c;stroke-width:2;stroke-linecap:butt;stroke-linejoin:miter;stroke-miterlimit:4;stroke-dasharray:none;stroke-opacity:1"
         sodipodi:type="star" />
    </g>
    <path
       style="fill:#800080;fill-opacity:1;stroke:#800080;stroke-width:2.7293396;stroke-linecap:round;stroke-linejoin:miter;stroke-miterlimit:4;stroke-dasharray:none;stroke-dashoffset:0;stroke-opacity:1"
       d="M 57.490159,28.523728 C 46.073833,29.412178 36.179541,36.54715 30.834247,46.660641 l -8.984303,-5.464833 3.415521,25.344146 25.096655,-7.999241 -9.207058,-5.623234 c 3.48388,-6.679101 10.03025,-11.312082 17.597353,-11.721671 0.36431,-0.01963 0.744887,0 1.113761,0 8.391932,0 15.656079,4.317448 19.156625,11.827733 l 12.696812,0 C 87.629485,38.368047 74.92862,28.523728 59.866176,28.523728 c -0.502083,0 -0.988332,-0.02346 -1.485011,0 -0.207047,0.01035 -0.387955,-0.01398 -0.594001,0 -0.110389,0.0077 -0.186906,-0.009 -0.297005,0 z m 34.303704,30.412988 -22.423632,11.48407 9.281301,4.514423 C 75.024488,82.028198 67.969635,86.81528 59.866176,86.81528 c -8.391936,0 -15.656082,-4.317459 -19.156619,-11.827731 l -12.696828,0 c 4.090144,14.655483 16.791002,24.499816 31.853447,24.499816 12.908979,0 24.045638,-7.854565 29.551667,-19.324924 l 8.464559,4.118419 -6.088539,-25.344144 z"
       id="path2209"
       sodipodi:nodetypes="ccccccssccsssccccsccsccc"
       inkscape:connector-curvature="0" />
  </g>
  <metadata
     id="metadata15">
    <rdf:RDF>
      <cc:Work>
        <dc:format>image/svg+xml</dc:format>
        <dc:type
           rdf:resource="http://purl.org/dc/dcmitype/StillImage" />
        <cc:license
           rdf:resource="http://creativecommons.org/licenses/publicdomain/" />
        <dc:publisher>
          <cc:Agent
             rdf:about="http://openclipart.org/">
            <dc:title>Openclipart</dc:title>
          </cc:Agent>
        </dc:publisher>
        <dc:title />
        <dc:date>2009-03-10T13:22:47</dc:date>
        <dc:description>golden chain</dc:description>
        <dc:source>https://openclipart.org/detail/22077/chain-by-nicubunu</dc:source>
        <dc:creator>
          <cc:Agent>
            <dc:title>nicubunu</dc:title>
          </cc:Agent>
        </dc:creator>
        <dc:subject>
          <rdf:Bag>
            <rdf:li>cartoon</rdf:li>
            <rdf:li>chain</rdf:li>
            <rdf:li>link</rdf:li>
            <rdf:li>symbol</rdf:li>
          </rdf:Bag>
        </dc:subject>
      </cc:Work>
      <cc:License
         rdf:about="http://creativecommons.org/licenses/publicdomain/">
        <cc:permits
           rdf:resource="http://creativecommons.org/ns#Reproduction" />
        <cc:permits
           rdf:resource="http://creativecommons.org/ns#Distribution" />
        <cc:permits
           rdf:resource="http://creativecommons.org/ns#DerivativeWorks" />
      </cc:License>
    </rdf:RDF>
  </metadata>
</svg>
